<svg width="160" height="36" viewBox="0 0 160 36" fill="none" xmlns="http://www.w3.org/2000/svg">
<path d="M15.4633 35.6379C11.8075 35.0255 8.43448 33.2858 5.81618 30.662C3.19781 28.0382 1.46494 24.6617 0.859985 21.0047C1.02052 21.0715 1.18504 21.1282 1.35261 21.1745L4.79538 22.128C5.46531 24.3878 6.68669 26.4454 8.34957 28.1158C10.0124 29.7863 12.0646 31.0167 14.3213 31.6969L15.2543 35.0893C15.3085 35.2777 15.3784 35.4612 15.4633 35.6379Z" fill="white"/>
<path d="M27.9431 3.08739L27.8442 3.12098L23.3397 4.78919C20.1554 3.61247 16.6551 3.61435 13.4721 4.79447C10.2891 5.97458 7.6334 8.25501 5.98589 11.2231L1.38806 12.9286C2.18574 10.3056 3.57895 7.90231 5.45891 5.9066C7.33894 3.91092 9.65465 2.3768 12.2256 1.42404C14.7964 0.471278 17.5527 0.125676 20.2793 0.414216C23.0057 0.702756 25.6286 1.61762 27.9431 3.08739Z" fill="white"/>
<path d="M30.9773 30.6762C28.8894 32.7668 26.3121 34.3024 23.4797 35.1434L25.174 30.5773C28.191 28.9354 30.5115 26.2565 31.7067 23.0364C32.9017 19.816 32.8905 16.2719 31.6752 13.0593L33.3284 8.60328C33.3434 8.56596 33.3546 8.52304 33.3695 8.48572C35.5626 11.9023 36.5212 15.9663 36.086 20.0028C35.6509 24.0394 33.8481 27.8055 30.9773 30.6762Z" fill="white"/>
<path d="M30.5649 7.5769L29.8091 9.6407L21.5334 31.9432L20.6172 34.4138C20.5189 34.6754 20.3405 34.8995 20.1074 35.0538C19.8744 35.2081 19.5984 35.2848 19.319 35.2731C19.0397 35.2613 18.7714 35.1615 18.5521 34.9881C18.3329 34.8148 18.1739 34.5765 18.0981 34.3074L17.5383 32.2641L14.6572 21.8929V21.8593C14.6529 21.8436 14.6451 21.8295 14.6339 21.8177C14.6229 21.8059 14.6091 21.7972 14.5938 21.7921L4.24489 18.9241L2.13631 18.3419C1.86704 18.2665 1.62851 18.1079 1.45471 17.8888C1.28091 17.67 1.18077 17.4016 1.16856 17.1223C1.15636 16.8429 1.23271 16.5668 1.38673 16.3335C1.54075 16.1001 1.76456 15.9213 2.02621 15.8228L4.5789 14.8767L26.7844 6.64577L28.8612 5.87511C29.0101 5.82103 29.1672 5.79265 29.3259 5.79114C29.5119 5.7919 29.6957 5.83204 29.8651 5.9089C30.0347 5.98576 30.1861 6.09763 30.3092 6.23711C30.3475 6.27529 30.3818 6.31716 30.4119 6.36214C30.5346 6.5367 30.6128 6.73871 30.6395 6.95049C30.6662 7.16226 30.6405 7.37733 30.5649 7.5769Z" fill="white"/>
<g opacity="0.14">
<path opacity="0.14" d="M30.5649 7.57691L29.8092 9.64071L21.5334 31.9432L20.6172 34.4138C20.5189 34.6756 20.3405 34.8995 20.1074 35.0538C19.8744 35.2081 19.5984 35.2848 19.3191 35.2731C19.0397 35.2613 18.7714 35.1615 18.5521 34.9881C18.3329 34.8148 18.1739 34.5765 18.0981 34.3074L17.5383 32.2641L14.6572 21.8929L30.313 6.23712C30.3512 6.2753 30.3856 6.31717 30.4156 6.36214C30.5378 6.53704 30.6153 6.73921 30.6412 6.95096C30.6673 7.16273 30.641 7.37764 30.5649 7.57691Z" fill="white"/>
</g>
<path d="M47.9094 26.64V8.76746H50.5871V23.938H58.3963V26.64H47.9094Z" fill="white"/>
<path d="M72.5742 24.9307C71.9168 25.6131 71.1267 26.1535 70.2525 26.5187C69.3783 26.8839 68.4386 27.0662 67.4912 27.0542C65.592 27.0311 63.7773 26.2662 62.4343 24.9233C61.0914 23.5803 60.3265 21.7656 60.3034 19.8664C60.2927 18.9189 60.4763 17.9791 60.8428 17.1053C61.2093 16.2314 61.751 15.4417 62.4343 14.7853C63.085 14.101 63.87 13.5586 64.7401 13.1919C65.6104 12.8251 66.547 12.6422 67.4912 12.6543C69.3994 12.6709 71.2245 13.4364 72.5738 14.7857C73.9231 16.135 74.6885 17.9601 74.7052 19.8683C74.718 20.8134 74.5355 21.7511 74.1689 22.6223C73.802 23.4935 73.2592 24.2795 72.5742 24.9307ZM70.6895 16.6755C70.2697 16.2557 69.7711 15.9226 69.2225 15.6953C68.6739 15.4681 68.0859 15.3512 67.4921 15.3512C66.8984 15.3512 66.3102 15.4681 65.7616 15.6953C65.213 15.9226 64.7146 16.2557 64.2947 16.6755C63.8749 17.0954 63.5418 17.594 63.3145 18.1426C63.0872 18.6912 62.9702 19.2792 62.9702 19.8729C62.9702 20.4667 63.0872 21.0549 63.3145 21.6035C63.5418 22.1521 63.8749 22.6505 64.2947 23.0703C65.1426 23.9184 66.2928 24.3948 67.4921 24.3948C68.6914 24.3948 69.8414 23.9184 70.6895 23.0703C71.5374 22.2224 72.0138 21.0722 72.0138 19.8729C72.0138 18.6737 71.5374 17.5236 70.6895 16.6755Z" fill="white"/>
<path d="M89.7526 24.2123C89.0838 25.0976 88.2182 25.8148 87.2242 26.3078C86.2316 26.8046 85.1357 27.0604 84.0258 27.0542C82.127 27.0324 80.3119 26.2694 78.9679 24.9279C77.624 23.5863 76.8576 21.7725 76.8324 19.8739C76.8218 18.9263 77.0054 17.9866 77.3719 17.1126C77.7383 16.2387 78.2801 15.4492 78.9634 14.7927C79.6141 14.1085 80.3991 13.5659 81.2692 13.1992C82.1395 12.8325 83.0761 12.6495 84.0202 12.6618C85.1484 12.6629 86.2591 12.9396 87.2559 13.4679C88.2925 14.0073 89.1947 14.7726 89.8963 15.7071L87.644 17.1644C86.6364 15.9577 85.4296 15.3544 84.024 15.3544C83.1317 15.3561 82.2599 15.6218 81.5181 16.118C80.7766 16.6142 80.1985 17.3188 79.8564 18.143C79.5144 18.9672 79.4241 19.8741 79.5965 20.7496C79.7689 21.6251 80.1966 22.4299 80.8256 23.0629C81.2414 23.4874 81.7396 23.8223 82.2895 24.047C82.8396 24.2717 83.4298 24.3812 84.024 24.3691C85.4123 24.3691 86.619 23.7576 87.644 22.5348L89.6761 23.841L89.7526 24.2123Z" fill="white"/>
<path d="M103.955 26.64V24.774C103.353 25.4805 102.606 26.0494 101.766 26.4428C100.925 26.8361 100.01 27.0444 99.0819 27.0539C98.1537 27.0632 97.2345 26.8735 96.386 26.4971C95.5378 26.1209 94.78 25.5671 94.1638 24.8729C92.9026 23.5147 92.2182 21.7196 92.2549 19.8664C92.2144 17.9986 92.9086 16.1895 94.1881 14.8282C94.7729 14.1179 95.5154 13.5536 96.3564 13.1806C97.1981 12.8202 98.1056 12.6385 99.021 12.6469C100.988 12.6469 102.632 13.4069 103.955 14.9271V13.0929H106.657V26.627L103.955 26.64ZM102.649 16.6756C101.801 15.8256 100.65 15.3474 99.4489 15.3459C98.2483 15.3446 97.0962 15.8202 96.2463 16.6681C95.3963 17.5162 94.9181 18.667 94.9166 19.8677C94.9153 21.0683 95.3909 22.2204 96.2388 23.0704C97.0938 23.8839 98.2328 24.3312 99.4131 24.3165C100.593 24.3019 101.721 23.8267 102.555 22.992C103.39 22.1575 103.865 21.0299 103.88 19.8498C103.894 18.6696 103.447 17.5306 102.634 16.6756H102.649Z" fill="white"/>
<path d="M109.879 26.64V8.76746H112.557V26.64H109.879Z" fill="white"/>
<path d="M129.599 20.4691C129.574 20.6845 129.546 20.9332 129.513 21.2155H118.131C118.388 22.0806 118.911 22.8434 119.624 23.3969C120.415 24.0392 121.403 24.3892 122.423 24.3877C123.843 24.3877 125.05 23.7764 126.043 22.5535L128.299 24.0164C127.597 24.9511 126.695 25.7163 125.658 26.2556C124.661 26.7813 123.55 27.0554 122.423 27.0542C120.524 27.0311 118.709 26.2662 117.366 24.9233C116.023 23.5803 115.258 21.7656 115.235 19.8664C115.224 18.9189 115.408 17.9791 115.774 17.1053C116.141 16.2314 116.682 15.4417 117.366 14.7853C118.016 14.101 118.801 13.5586 119.672 13.1919C120.542 12.8251 121.478 12.6422 122.423 12.6543C124.332 12.67 126.159 13.4356 127.51 14.7862C128.86 16.1368 129.625 17.9642 129.64 19.8739C129.638 20.073 129.624 20.2717 129.599 20.4691ZM118.134 18.5117H126.737C126.47 17.6464 125.942 16.8845 125.225 16.3303C124.436 15.6875 123.444 15.3451 122.426 15.3637C121.467 15.3567 120.532 15.6591 119.758 16.2262C118.985 16.7933 118.416 17.5949 118.134 18.5117Z" fill="white"/>
<path d="M135.35 26.1212C135.185 26.2918 134.987 26.4261 134.767 26.5157C134.547 26.6055 134.311 26.6484 134.074 26.6418C133.839 26.6482 133.605 26.6051 133.388 26.5155C133.171 26.4258 132.975 26.2914 132.812 26.1212C132.486 25.7811 132.304 25.3282 132.304 24.857C132.304 24.3858 132.486 23.933 132.812 23.5928C132.973 23.4237 133.168 23.2901 133.384 23.2006C133.599 23.1108 133.831 23.0671 134.065 23.0722C134.302 23.0656 134.538 23.1088 134.758 23.1983C134.977 23.2879 135.176 23.4222 135.341 23.5928C135.667 23.933 135.849 24.3858 135.849 24.857C135.849 25.3282 135.667 25.7811 135.341 26.1212H135.35Z" fill="white"/>
<path d="M150.235 26.64V24.774C149.633 25.4805 148.887 26.0494 148.046 26.4428C147.206 26.8361 146.29 27.0444 145.362 27.0539C144.434 27.0632 143.515 26.8735 142.667 26.4971C141.818 26.1209 141.061 25.5671 140.444 24.8729C139.183 23.5147 138.499 21.7196 138.535 19.8664C138.495 17.9986 139.189 16.1895 140.469 14.8282C141.053 14.1177 141.796 13.5536 142.637 13.1806C143.479 12.8202 144.386 12.6385 145.302 12.6469C147.268 12.6469 148.913 13.4069 150.235 14.9271V13.0929H152.937V26.627L150.235 26.64ZM148.929 16.6756C148.074 15.862 146.935 15.4147 145.755 15.4295C144.575 15.444 143.447 15.9193 142.613 16.754C141.778 17.5884 141.303 18.7161 141.288 19.8961C141.274 21.0764 141.721 22.2154 142.534 23.0704C143.389 23.8839 144.528 24.3312 145.709 24.3165C146.889 24.3019 148.016 23.8267 148.851 22.992C149.685 22.1575 150.161 21.0299 150.175 19.8498C150.19 18.6696 149.743 17.5306 148.929 16.6756Z" fill="white"/>
<path d="M158.761 11.3798C158.468 11.675 158.082 11.8594 157.669 11.9016C157.255 11.9437 156.84 11.8411 156.494 11.6112C156.147 11.3813 155.891 11.0384 155.77 10.6409C155.648 10.2434 155.668 9.81603 155.827 9.43173C155.985 9.04743 156.272 8.73 156.638 8.53363C157.005 8.33723 157.428 8.27406 157.835 8.35488C158.243 8.4357 158.61 8.65551 158.874 8.9768C159.138 9.29807 159.282 9.70092 159.282 10.1166C159.286 10.3515 159.242 10.5848 159.152 10.8021C159.063 11.0193 158.929 11.216 158.761 11.3798ZM156.158 26.6493V13.1059H158.836V26.64L156.158 26.6493Z" fill="white"/>
</svg>
